<svg id="Layer_1" data-name="Layer 1" xmlns="http://www.w3.org/2000/svg" viewBox="0 0 148.51 48.04"><defs><style>.cls-1{font-size:72px;font-family:GrahamoRegular, Grahamo;}</style></defs><text class="cls-1" transform="translate(29.45 28.96)">in theory</text><path d="M1.92,42.76.25,39.2H.73l1.52,3.33Zm-.8,1.65,2.3-5.21h.41L1.57,44.41Z"/><path d="M4.49,40.94A1.81,1.81,0,0,1,4.74,40a1.87,1.87,0,0,1,.67-.67,2,2,0,0,1,1-.24,1.9,1.9,0,0,1,1,.24A1.8,1.8,0,0,1,8,40a2,2,0,0,1,0,1.88,1.8,1.8,0,0,1-.67.67,1.94,1.94,0,0,1-1,.24,2,2,0,0,1-1-.23,1.77,1.77,0,0,1-.67-.66A1.81,1.81,0,0,1,4.49,40.94Zm.42,0a1.52,1.52,0,0,0,.72,1.29,1.4,1.4,0,0,0,.73.19,1.43,1.43,0,0,0,.74-.19A1.49,1.49,0,0,0,7.81,41a1.44,1.44,0,0,0-.19-.75,1.42,1.42,0,0,0-.52-.54,1.38,1.38,0,0,0-1.48,0,1.52,1.52,0,0,0-.52.55A1.56,1.56,0,0,0,4.91,41Z"/><path d="M10.61,42.82a1.1,1.1,0,0,1-.79-.29,1.12,1.12,0,0,1-.32-.76V39.2h.43v2.44a.86.86,0,0,0,.22.57.81.81,0,0,0,.6.24,1.19,1.19,0,0,0,.64-.18,1.44,1.44,0,0,0,.49-.49,1.39,1.39,0,0,0,.18-.71V39.2h.42v3.52H12.1l0-1.11.06.25a1.16,1.16,0,0,1-.32.49,1.66,1.66,0,0,1-.54.34A1.57,1.57,0,0,1,10.61,42.82Z"/><path d="M14.45,39.2l.05,1.08-.06-.13a1.52,1.52,0,0,1,.37-.56,1.72,1.72,0,0,1,.57-.36A1.61,1.61,0,0,1,16,39.1v.42a1.53,1.53,0,0,0-.74.18,1.42,1.42,0,0,0-.52.48,1.22,1.22,0,0,0-.19.68v1.86h-.43V39.2Z"/><path d="M20.75,42.79a1.91,1.91,0,0,1-.64-.11,1.2,1.2,0,0,1-.54-.36l.2-.28a1.66,1.66,0,0,0,.43.3,1.32,1.32,0,0,0,.53.11,1.27,1.27,0,0,0,.39-.06.61.61,0,0,0,.3-.2.59.59,0,0,0,.12-.39.52.52,0,0,0-.14-.38,1,1,0,0,0-.35-.22L20.6,41A1.88,1.88,0,0,1,20,40.7a.77.77,0,0,1-.25-.62.92.92,0,0,1,.14-.5,1,1,0,0,1,.38-.34,1.23,1.23,0,0,1,.55-.12,1.71,1.71,0,0,1,.55.09,1.2,1.2,0,0,1,.5.31l-.19.29a.7.7,0,0,0-.38-.27,2.76,2.76,0,0,0-.42-.08.77.77,0,0,0-.32.07.75.75,0,0,0-.28.18.48.48,0,0,0-.11.32.49.49,0,0,0,.12.34,1,1,0,0,0,.3.21l.38.15a3.13,3.13,0,0,1,.49.2,1,1,0,0,1,.38.29.77.77,0,0,1,.15.49,1.16,1.16,0,0,1-.14.56.92.92,0,0,1-.4.38A1.33,1.33,0,0,1,20.75,42.79Z"/><path d="M23.15,37.91a.24.24,0,0,1,.1-.21.29.29,0,0,1,.21-.09.29.29,0,0,1,.22.09.26.26,0,0,1,.09.21.29.29,0,0,1-.09.22.33.33,0,0,1-.22.08.29.29,0,0,1-.21-.09A.26.26,0,0,1,23.15,37.91Zm.09,1.29h.42v3.52h-.42Z"/><path d="M25.63,39.2l.05,1-.07-.09a1.5,1.5,0,0,1,.6-.72,1.68,1.68,0,0,1,.92-.27,1.18,1.18,0,0,1,.53.12,1,1,0,0,1,.39.3.8.8,0,0,1,.17.45l0,.05a1.36,1.36,0,0,1,.59-.68,1.69,1.69,0,0,1,.88-.24,1.09,1.09,0,0,1,.8.3,1,1,0,0,1,.3.76v2.56h-.42V40.25a.85.85,0,0,0-.2-.54.74.74,0,0,0-.57-.24,1.22,1.22,0,0,0-.65.18,1.45,1.45,0,0,0-.69,1.15v1.92h-.42V40.25a.8.8,0,0,0-.2-.54.76.76,0,0,0-.58-.24,1.26,1.26,0,0,0-.66.18,1.41,1.41,0,0,0-.48.49,1.37,1.37,0,0,0-.18.69v1.89h-.43V39.2Z"/><path d="M34.29,42.79a1.89,1.89,0,0,1-.95-.26,1.63,1.63,0,0,1-.64-.69l.07-.15v2.72h-.42V39.18h.37l.05,1.15-.08-.26a1.76,1.76,0,0,1,.68-.7,1.89,1.89,0,0,1,1-.28,1.75,1.75,0,0,1,.91.25,1.69,1.69,0,0,1,.64.66,2,2,0,0,1,0,1.91,1.82,1.82,0,0,1-.67.65A1.85,1.85,0,0,1,34.29,42.79Zm-.07-.35a1.41,1.41,0,0,0,.75-.2,1.61,1.61,0,0,0,.54-.53,1.5,1.5,0,0,0,.2-.75,1.39,1.39,0,0,0-.2-.76,1.42,1.42,0,0,0-.52-.54,1.45,1.45,0,0,0-.75-.2,1.48,1.48,0,0,0-.72.18,1.53,1.53,0,0,0-.52.49,1.45,1.45,0,0,0-.23.69v.29a1.38,1.38,0,0,0,.23.68,1.42,1.42,0,0,0,1.22.65Z"/><path d="M37.4,35.88h.43v6.84H37.4Z"/><path d="M39.34,37.91a.24.24,0,0,1,.1-.21.3.3,0,0,1,.21-.09.29.29,0,0,1,.22.09.26.26,0,0,1,.09.21.29.29,0,0,1-.09.22.33.33,0,0,1-.22.08.3.3,0,0,1-.21-.09A.26.26,0,0,1,39.34,37.91Zm.09,1.29h.42v3.52h-.42Z"/><path d="M42.28,42.79a1.87,1.87,0,0,1-.64-.11,1.2,1.2,0,0,1-.54-.36l.2-.28a1.5,1.5,0,0,0,.43.3,1.31,1.31,0,0,0,.52.11,1.34,1.34,0,0,0,.4-.06.61.61,0,0,0,.3-.2.58.58,0,0,0,.11-.39.48.48,0,0,0-.14-.38,1,1,0,0,0-.35-.22L42.13,41a2,2,0,0,1-.64-.34.8.8,0,0,1-.24-.62.84.84,0,0,1,.14-.5,1,1,0,0,1,.38-.34,1.2,1.2,0,0,1,.55-.12,1.76,1.76,0,0,1,.55.09,1.27,1.27,0,0,1,.5.31l-.19.29a.7.7,0,0,0-.38-.27,2.76,2.76,0,0,0-.42-.08.77.77,0,0,0-.32.07.75.75,0,0,0-.28.18.48.48,0,0,0-.11.32.49.49,0,0,0,.12.34.77.77,0,0,0,.3.21l.38.15a3.58,3.58,0,0,1,.49.2,1.1,1.1,0,0,1,.38.29.77.77,0,0,1,.15.49,1.16,1.16,0,0,1-.14.56.92.92,0,0,1-.4.38A1.36,1.36,0,0,1,42.28,42.79Z"/><path d="M45.12,37.65h.43v1.6h1.09v.34H45.55v3.13h-.43V39.59h-.75v-.34h.75Z"/><path d="M51.28,42.79a1.87,1.87,0,0,1-.64-.11,1.2,1.2,0,0,1-.54-.36l.2-.28a1.5,1.5,0,0,0,.43.3,1.31,1.31,0,0,0,.52.11,1.34,1.34,0,0,0,.4-.06.61.61,0,0,0,.3-.2.58.58,0,0,0,.11-.39.48.48,0,0,0-.14-.38,1,1,0,0,0-.35-.22L51.13,41a2,2,0,0,1-.64-.34.8.8,0,0,1-.24-.62.84.84,0,0,1,.14-.5,1,1,0,0,1,.38-.34,1.2,1.2,0,0,1,.55-.12,1.76,1.76,0,0,1,.55.09,1.27,1.27,0,0,1,.5.31l-.19.29a.7.7,0,0,0-.38-.27,2.76,2.76,0,0,0-.42-.08.77.77,0,0,0-.32.07.75.75,0,0,0-.28.18.48.48,0,0,0-.11.32.49.49,0,0,0,.12.34.77.77,0,0,0,.3.21l.38.15a3.58,3.58,0,0,1,.49.2,1.1,1.1,0,0,1,.38.29.77.77,0,0,1,.15.49,1.16,1.16,0,0,1-.14.56.92.92,0,0,1-.4.38A1.36,1.36,0,0,1,51.28,42.79Z"/><path d="M56.48,42.38a2,2,0,0,1-.55.31,1.89,1.89,0,0,1-.63.1,2,2,0,0,1-1-.23,1.83,1.83,0,0,1-.91-1.6,1.78,1.78,0,0,1,.26-1,1.82,1.82,0,0,1,.67-.65,1.77,1.77,0,0,1,.91-.24,2.11,2.11,0,0,1,.68.11,1.49,1.49,0,0,1,.55.31l-.22.28a2.09,2.09,0,0,0-.44-.25,1.62,1.62,0,0,0-.54-.1,1.4,1.4,0,0,0-.73.2,1.42,1.42,0,0,0-.52.54,1.56,1.56,0,0,0,0,1.49,1.52,1.52,0,0,0,.53.54,1.49,1.49,0,0,0,.75.19,1.44,1.44,0,0,0,.51-.08,2.13,2.13,0,0,0,.42-.23Z"/><path d="M57.57,37.91a.27.27,0,0,1,.1-.21.33.33,0,0,1,.22-.09.29.29,0,0,1,.21.09.26.26,0,0,1,.09.21.29.29,0,0,1-.09.22.32.32,0,0,1-.21.08.33.33,0,0,1-.22-.09A.3.3,0,0,1,57.57,37.91Zm.09,1.29h.43v3.52h-.43Z"/><path d="M61.22,42.79a1.91,1.91,0,0,1-1-.24,1.7,1.7,0,0,1-.67-.66,1.85,1.85,0,0,1-.23-.94A1.79,1.79,0,0,1,59.6,40a1.9,1.9,0,0,1,.68-.67,1.8,1.8,0,0,1,.95-.25,1.56,1.56,0,0,1,1.05.36,2.09,2.09,0,0,1,.62,1l-3.08,1.19-.12-.31,2.81-1.1-.09.13a1.55,1.55,0,0,0-.46-.62,1.12,1.12,0,0,0-.76-.26,1.4,1.4,0,0,0-.73.19,1.55,1.55,0,0,0-.52.53,1.51,1.51,0,0,0-.19.76,1.59,1.59,0,0,0,.18.74,1.52,1.52,0,0,0,.52.55,1.41,1.41,0,0,0,.77.2,1.49,1.49,0,0,0,.55-.1,2.16,2.16,0,0,0,.47-.28l.22.3a2.19,2.19,0,0,1-.58.33A1.93,1.93,0,0,1,61.22,42.79Z"/><path d="M64.44,39.2l0,1.11,0-.22a1.36,1.36,0,0,1,.58-.72A1.75,1.75,0,0,1,66,39.1a1.09,1.09,0,0,1,.8.3,1,1,0,0,1,.32.76v2.56h-.44V40.27a.79.79,0,0,0-.21-.56.83.83,0,0,0-.6-.24,1.35,1.35,0,0,0-.66.17,1.33,1.33,0,0,0-.49.48,1.28,1.28,0,0,0-.19.71v1.89h-.42V39.2Z"/><path d="M71.4,42.38a2.29,2.29,0,0,1-.55.31,2.11,2.11,0,0,1-1.6-.13,1.7,1.7,0,0,1-.67-.66,1.83,1.83,0,0,1-.24-.94,1.77,1.77,0,0,1,.25-1,1.9,1.9,0,0,1,.67-.65,1.79,1.79,0,0,1,.91-.24,2.17,2.17,0,0,1,.69.11,1.44,1.44,0,0,1,.54.31l-.22.28a1.87,1.87,0,0,0-.44-.25,1.62,1.62,0,0,0-.54-.1,1.43,1.43,0,0,0-.73.2,1.5,1.5,0,0,0-.52.54,1.56,1.56,0,0,0,0,1.49,1.52,1.52,0,0,0,.53.54,1.49,1.49,0,0,0,.75.19,1.4,1.4,0,0,0,.51-.08,1.69,1.69,0,0,0,.42-.23Z"/><path d="M74.1,42.79a2,2,0,0,1-1-.24,1.74,1.74,0,0,1-.66-.66,1.85,1.85,0,0,1-.24-.94,1.89,1.89,0,0,1,.25-.94,2,2,0,0,1,.68-.67,1.85,1.85,0,0,1,1-.25,1.58,1.58,0,0,1,1.06.36,2.09,2.09,0,0,1,.62,1l-3.08,1.19-.13-.31,2.82-1.1-.09.13a1.65,1.65,0,0,0-.46-.62,1.12,1.12,0,0,0-.76-.26,1.37,1.37,0,0,0-.73.19,1.55,1.55,0,0,0-.52.53,1.51,1.51,0,0,0-.19.76,1.59,1.59,0,0,0,.18.74,1.45,1.45,0,0,0,.52.55,1.39,1.39,0,0,0,.76.2,1.5,1.5,0,0,0,.56-.1,2.43,2.43,0,0,0,.47-.28l.22.3a2.36,2.36,0,0,1-.58.33A2,2,0,0,1,74.1,42.79Z"/><path d="M80.09,39.2l0,1.11,0-.22a1.36,1.36,0,0,1,.58-.72,1.75,1.75,0,0,1,1-.27,1.09,1.09,0,0,1,.8.3,1,1,0,0,1,.32.76v2.56h-.44V40.27a.79.79,0,0,0-.21-.56.83.83,0,0,0-.6-.24,1.35,1.35,0,0,0-.66.17,1.33,1.33,0,0,0-.49.48,1.37,1.37,0,0,0-.19.71v1.89h-.42V39.2Z"/><path d="M85.86,42.79a1.91,1.91,0,0,1-1-.24,1.61,1.61,0,0,1-.66-.66A1.85,1.85,0,0,1,84,41a1.79,1.79,0,0,1,.25-.94,1.9,1.9,0,0,1,.68-.67,1.8,1.8,0,0,1,1-.25,1.6,1.6,0,0,1,1.06.36,2.07,2.07,0,0,1,.61,1l-3.08,1.19-.12-.31,2.81-1.1-.09.13a1.55,1.55,0,0,0-.46-.62,1.12,1.12,0,0,0-.76-.26,1.4,1.4,0,0,0-.73.19,1.65,1.65,0,0,0-.52.53,1.61,1.61,0,0,0-.19.76,1.48,1.48,0,0,0,.19.74,1.38,1.38,0,0,0,1.28.75,1.49,1.49,0,0,0,.55-.1,2,2,0,0,0,.47-.28l.22.3a2.19,2.19,0,0,1-.58.33A1.93,1.93,0,0,1,85.86,42.79Z"/><path d="M90.62,39.2l1.33,3h-.1l1.29-3h.43l-1.65,3.74-1.14-2.5-1,2.5L88.09,39.2h.42l1.36,3.06-.15,0,.9-2.18-.39-.84Z"/><path d="M95.45,42.79a1.91,1.91,0,0,1-.64-.11,1.2,1.2,0,0,1-.54-.36l.2-.28a1.5,1.5,0,0,0,.43.3,1.32,1.32,0,0,0,.92,0,.61.61,0,0,0,.3-.2.59.59,0,0,0,.12-.39.52.52,0,0,0-.14-.38,1,1,0,0,0-.35-.22L95.3,41a1.88,1.88,0,0,1-.63-.34.77.77,0,0,1-.25-.62.84.84,0,0,1,.14-.5,1,1,0,0,1,.38-.34,1.2,1.2,0,0,1,.55-.12,1.76,1.76,0,0,1,.55.09,1.2,1.2,0,0,1,.5.31l-.19.29a.7.7,0,0,0-.38-.27,2.76,2.76,0,0,0-.42-.08.77.77,0,0,0-.32.07.75.75,0,0,0-.28.18.48.48,0,0,0-.11.32.49.49,0,0,0,.12.34,1,1,0,0,0,.3.21l.38.15a3.13,3.13,0,0,1,.49.2,1,1,0,0,1,.38.29.77.77,0,0,1,.15.49,1.16,1.16,0,0,1-.14.56.92.92,0,0,1-.4.38A1.33,1.33,0,0,1,95.45,42.79Z"/><path d="M100.93,42.72V39.6h-.61v-.39h.61V37.44a2,2,0,0,1,.3-1.22,1,1,0,0,1,.87-.37l.26,0a.79.79,0,0,1,.27.1l-.18.31a.46.46,0,0,0-.14-.07.5.5,0,0,0-.18,0,.67.67,0,0,0-.58.27,1.73,1.73,0,0,0-.19,1v1.78h1.18v.39h-1.18v3.12Z"/><path d="M105,42.79a1.91,1.91,0,0,1-1-.24,1.74,1.74,0,0,1-.66-.66,1.85,1.85,0,0,1-.24-.94,1.79,1.79,0,0,1,.25-.94,1.9,1.9,0,0,1,.68-.67,1.8,1.8,0,0,1,1-.25,1.6,1.6,0,0,1,1.06.36,2.07,2.07,0,0,1,.61,1l-3.08,1.19-.12-.31,2.82-1.1-.09.13a1.68,1.68,0,0,0-.47-.62,1.1,1.1,0,0,0-.76-.26,1.4,1.4,0,0,0-.73.19,1.51,1.51,0,0,0-.71,1.29,1.48,1.48,0,0,0,.19.74,1.38,1.38,0,0,0,1.28.75,1.45,1.45,0,0,0,.55-.1,2.24,2.24,0,0,0,.48-.28l.21.3a2.19,2.19,0,0,1-.58.33A1.93,1.93,0,0,1,105,42.79Z"/><path d="M109.39,42.79a1.94,1.94,0,0,1-1-.24,1.74,1.74,0,0,1-.66-.66,1.85,1.85,0,0,1-.24-.94,1.89,1.89,0,0,1,.25-.94,2,2,0,0,1,.68-.67,1.85,1.85,0,0,1,1-.25,1.58,1.58,0,0,1,1.06.36,2.09,2.09,0,0,1,.62,1L108,41.61l-.13-.31,2.82-1.1-.09.13a1.65,1.65,0,0,0-.46-.62,1.12,1.12,0,0,0-.76-.26,1.37,1.37,0,0,0-.73.19,1.55,1.55,0,0,0-.52.53,1.51,1.51,0,0,0-.19.76,1.59,1.59,0,0,0,.18.74,1.45,1.45,0,0,0,.52.55,1.37,1.37,0,0,0,.76.2,1.5,1.5,0,0,0,.56-.1,2.43,2.43,0,0,0,.47-.28l.22.3a2.25,2.25,0,0,1-.59.33A1.89,1.89,0,0,1,109.39,42.79Z"/><path d="M113.69,42.79a1.83,1.83,0,0,1-.9-.23,1.75,1.75,0,0,1-.65-.67,2,2,0,0,1,0-1.93,1.63,1.63,0,0,1,.66-.64,1.93,1.93,0,0,1,.92-.23,1.84,1.84,0,0,1,1,.27,1.6,1.6,0,0,1,.66.68l-.07.2V35.88h.42v6.84h-.43V41.64l.09.2a1.77,1.77,0,0,1-.67.69A2,2,0,0,1,113.69,42.79Zm.1-.37a1.46,1.46,0,0,0,.73-.17,1.53,1.53,0,0,0,.53-.48,1.44,1.44,0,0,0,.22-.68v-.45A1.27,1.27,0,0,0,115,40a1.66,1.66,0,0,0-.52-.43,1.51,1.51,0,0,0-.68-.15,1.49,1.49,0,0,0-.73.18,1.35,1.35,0,0,0-.53.53,1.41,1.41,0,0,0-.2.77,1.36,1.36,0,0,0,.2.75,1.45,1.45,0,0,0,.53.54A1.36,1.36,0,0,0,113.79,42.42Z"/></svg>